<?xml version="1.0" encoding="UTF-8" standalone="no"?>
<!-- Created with Inkscape (http://www.inkscape.org/) -->

<svg
   width="10mm"
   height="10mm"
   viewBox="0 0 10 10"
   version="1.1"
   id="svg1"
   inkscape:version="1.4.2 (ebf0e940, 2025-05-08)"
   sodipodi:docname="implication_sprite.svg"
   xmlns:inkscape="http://www.inkscape.org/namespaces/inkscape"
   xmlns:sodipodi="http://sodipodi.sourceforge.net/DTD/sodipodi-0.dtd"
   xmlns="http://www.w3.org/2000/svg"
   xmlns:svg="http://www.w3.org/2000/svg">
  <sodipodi:namedview
     id="namedview1"
     pagecolor="#ffffff"
     bordercolor="#000000"
     borderopacity="0.25"
     inkscape:showpageshadow="2"
     inkscape:pageopacity="0.0"
     inkscape:pagecheckerboard="0"
     inkscape:deskcolor="#d1d1d1"
     inkscape:document-units="mm"
     inkscape:zoom="10.721567"
     inkscape:cx="5.5495622"
     inkscape:cy="10.539505"
     inkscape:window-width="1552"
     inkscape:window-height="981"
     inkscape:window-x="131"
     inkscape:window-y="38"
     inkscape:window-maximized="0"
     inkscape:current-layer="layer1"
     showgrid="true">
    <inkscape:grid
       id="grid1"
       units="mm"
       originx="0"
       originy="0"
       spacingx="0.99999997"
       spacingy="0.99999997"
       empcolor="#0099e5"
       empopacity="0.30196078"
       color="#0099e5"
       opacity="0.14901961"
       empspacing="5"
       enabled="true"
       visible="true" />
  </sodipodi:namedview>
  <defs
     id="defs1" />
  <g
     inkscape:label="Layer 1"
     inkscape:groupmode="layer"
     id="layer1">
    <path
       d="M 2.5421146,6.3683572 H 1.1027979 V 5.9962889 H 1.5801223 V 3.0956252 H 1.1027979 V 2.723557 H 2.5421146 V 3.0956252 H 2.0647902 v 2.9006637 h 0.4773244 z m 4.0707205,0 H 6.1281673 V 3.2278074 L 5.1147708,5.364752 H 4.8259284 L 3.8198754,3.2278074 V 6.3683572 H 3.3670292 V 2.723557 H 4.0279399 L 4.9997234,4.7527976 5.9396853,2.723557 H 6.6128351 Z M 9.9761365,3.8250748 q 0,0.242334 -0.085674,0.4503984 Q 9.8072371,4.4810899 9.6554724,4.6328546 9.4669905,4.8213365 9.2099697,4.9168014 8.9529488,5.0098185 8.561298,5.0098185 H 8.0766302 V 6.3683572 H 7.5919623 V 2.723557 h 0.9889183 q 0.3280075,0 0.5556545,0.0563 0.2276471,0.053852 0.4038899,0.1713472 0.2080645,0.1395256 0.3206641,0.3475901 0.1150474,0.2080645 0.1150474,0.5262807 z m -0.5042504,0.012239 q 0,-0.1884819 -0.066091,-0.3280075 Q 9.339704,3.3697808 9.205074,3.2816593 9.0875788,3.205777 8.9358141,3.1739554 8.7864972,3.1396859 8.5564024,3.1396859 H 8.0766302 v 1.4564514 h 0.4087855 q 0.2937381,0 0.4773244,-0.051404 0.1835863,-0.053852 0.2986337,-0.1688994 0.1150474,-0.1174953 0.161556,-0.2472296 0.048956,-0.1297343 0.048956,-0.2912903 z"
       id="text1"
       style="font-size:5.01313px;fill:#1a1a1a;stroke-width:0.41776"
       transform="scale(0.90866713,1.100513)"
       aria-label="IMP" />
  </g>
</svg>
