<?xml version="1.0" encoding="UTF-8" standalone="no"?>
<!-- Created with Inkscape (http://www.inkscape.org/) -->

<svg
   width="10mm"
   height="10mm"
   viewBox="0 0 10 10"
   version="1.1"
   id="svg1"
   inkscape:version="1.4.2 (ebf0e940, 2025-05-08)"
   sodipodi:docname="nor_sprite.svg"
   xmlns:inkscape="http://www.inkscape.org/namespaces/inkscape"
   xmlns:sodipodi="http://sodipodi.sourceforge.net/DTD/sodipodi-0.dtd"
   xmlns="http://www.w3.org/2000/svg"
   xmlns:svg="http://www.w3.org/2000/svg">
  <sodipodi:namedview
     id="namedview1"
     pagecolor="#ffffff"
     bordercolor="#000000"
     borderopacity="0.25"
     inkscape:showpageshadow="2"
     inkscape:pageopacity="0.0"
     inkscape:pagecheckerboard="0"
     inkscape:deskcolor="#d1d1d1"
     inkscape:document-units="mm"
     inkscape:zoom="16.018649"
     inkscape:cx="14.888896"
     inkscape:cy="19.040308"
     inkscape:window-width="1552"
     inkscape:window-height="981"
     inkscape:window-x="131"
     inkscape:window-y="38"
     inkscape:window-maximized="0"
     inkscape:current-layer="layer1"
     showgrid="true">
    <inkscape:grid
       id="grid1"
       units="mm"
       originx="0"
       originy="0"
       spacingx="0.99999997"
       spacingy="0.99999997"
       empcolor="#0099e5"
       empopacity="0.30196078"
       color="#0099e5"
       opacity="0.14901961"
       empspacing="5"
       enabled="true"
       visible="true" />
  </sodipodi:namedview>
  <defs
     id="defs1" />
  <g
     inkscape:label="Layer 1"
     inkscape:groupmode="layer"
     id="layer1">
    <path
       d="M 3.7448007,5.8079758 H 3.2106636 L 1.6714767,2.9040141 V 5.8079758 H 1.2681487 V 2.5617303 H 1.9374552 L 3.3414727,5.2127944 V 2.5617303 h 0.403328 z M 7.0281088,2.9345362 q 0.1983938,0.2180152 0.303041,0.5341371 0.1068274,0.316122 0.1068274,0.7172698 0,0.4011479 -0.1090075,0.71945 Q 7.2221423,5.221515 7.0281088,5.4329897 6.8275349,5.653185 6.5528358,5.7643727 6.2803169,5.8755605 5.9293125,5.8755605 q -0.3422838,0 -0.6235233,-0.1133679 Q 5.0267298,5.6488247 4.8305162,5.4329897 4.6343025,5.2171547 4.5274751,4.9032129 4.4228279,4.5892711 4.4228279,4.1859431 q 0,-0.3967875 0.1046472,-0.7107293 0.1046473,-0.316122 0.3052212,-0.5406776 0.1918533,-0.2136548 0.475273,-0.3270227 0.2855999,-0.1133679 0.6213432,-0.1133679 0.3488242,0 0.6257034,0.1155481 0.2790594,0.1133678 0.4730929,0.3248425 z m -0.039243,1.2514069 q 0,-0.6322439 -0.2834197,-0.9745277 -0.2834197,-0.3444639 -0.7739538,-0.3444639 -0.4948943,0 -0.778314,0.3444639 -0.2812396,0.3422838 -0.2812396,0.9745277 0,0.6387844 0.28778,0.978888 0.28778,0.3379235 0.7717736,0.3379235 0.4839936,0 0.7695935,-0.3379235 0.28778,-0.3401036 0.28778,-0.978888 z M 10.808491,5.8079758 H 10.248192 L 9.1624768,4.5173261 H 8.5542145 v 1.2906497 h -0.43167 V 2.5617303 h 0.9091232 q 0.2943204,0 0.490534,0.039243 0.1962137,0.037063 0.3531846,0.1351694 0.1765927,0.1111878 0.2746987,0.2812396 0.100287,0.1678716 0.100287,0.4273096 0,0.3510044 -0.176592,0.5886409 -0.1765922,0.2354564 -0.4861737,0.3553647 z m -1.00941,-2.332762 q 0,-0.1395297 -0.050143,-0.2463571 Q 9.7009742,3.1198491 9.5876063,3.0457239 9.4938598,2.9824995 9.3652308,2.9585179 9.2366019,2.9323561 9.0621898,2.9323561 H 8.5542145 v 1.2252451 h 0.4360303 q 0.2049342,0 0.3575448,-0.034883 0.1526106,-0.037063 0.259438,-0.1351694 0.098107,-0.091566 0.14389,-0.2092945 0.047963,-0.1199083 0.047963,-0.303041 z"
       id="text1"
       style="font-size:4.46495px;fill:#1a1a1a;stroke-width:0.372079"
       transform="scale(0.83572958,1.1965593)"
       aria-label="NOR" />
  </g>
</svg>
