<?xml version="1.0" encoding="UTF-8" standalone="no"?>
<!-- Created with Inkscape (http://www.inkscape.org/) -->

<svg
   width="10mm"
   height="10mm"
   viewBox="0 0 10 10"
   version="1.1"
   id="svg1"
   inkscape:version="1.4.2 (ebf0e940, 2025-05-08)"
   sodipodi:docname="xor_sprite.svg"
   xmlns:inkscape="http://www.inkscape.org/namespaces/inkscape"
   xmlns:sodipodi="http://sodipodi.sourceforge.net/DTD/sodipodi-0.dtd"
   xmlns="http://www.w3.org/2000/svg"
   xmlns:svg="http://www.w3.org/2000/svg">
  <sodipodi:namedview
     id="namedview1"
     pagecolor="#ffffff"
     bordercolor="#000000"
     borderopacity="0.25"
     inkscape:showpageshadow="2"
     inkscape:pageopacity="0.0"
     inkscape:pagecheckerboard="0"
     inkscape:deskcolor="#d1d1d1"
     inkscape:document-units="mm"
     inkscape:zoom="12.090125"
     inkscape:cx="16.418358"
     inkscape:cy="28.70111"
     inkscape:window-width="1552"
     inkscape:window-height="981"
     inkscape:window-x="131"
     inkscape:window-y="38"
     inkscape:window-maximized="0"
     inkscape:current-layer="layer1"
     showgrid="true">
    <inkscape:grid
       id="grid1"
       units="mm"
       originx="0"
       originy="0"
       spacingx="0.99999997"
       spacingy="0.99999997"
       empcolor="#0099e5"
       empopacity="0.30196078"
       color="#0099e5"
       opacity="0.14901961"
       empspacing="5"
       enabled="true"
       visible="true" />
  </sodipodi:namedview>
  <defs
     id="defs1" />
  <g
     inkscape:label="Layer 1"
     inkscape:groupmode="layer"
     id="layer1">
    <path
       d="M 3.3515813,3.0723602 2.3976811,5.0026147 3.3497254,6.977454 H 2.9247388 L 2.171269,5.3697827 1.3992408,6.977454 H 0.99837999 L 1.9615594,5.0262183 1.02065,3.0723602 H 1.4437809 L 2.1879715,4.6590503 2.9488647,3.0723602 Z m 2.5369291,0.4484694 q 0.1688811,0.2622629 0.2579613,0.642544 0.090936,0.3802811 0.090936,0.8628447 0,0.4825637 -0.092792,0.8654674 -0.090936,0.3802812 -0.2561054,0.6346762 -0.170737,0.2648855 -0.4045725,0.3986395 -0.2319797,0.133754 -0.5307694,0.133754 -0.2913664,0 -0.5307693,-0.1363766 Q 4.184852,6.7860021 4.0178267,6.5263619 3.8508014,6.2667217 3.7598653,5.8890631 q -0.08908,-0.3776585 -0.08908,-0.8628448 0,-0.4773183 0.08908,-0.8549768 Q 3.8489455,3.7909604 4.0196825,3.5208296 4.1829962,3.2638121 4.424255,3.1274354 4.6673696,2.9910586 4.9531685,2.9910586 q 0.296934,0 0.5326252,0.1389994 0.2375472,0.1363766 0.4027167,0.3907716 z m -0.033405,1.5053887 q 0,-0.7605622 -0.2412587,-1.1723149 -0.2412592,-0.4143752 -0.6588226,-0.4143752 -0.4212749,0 -0.6625338,0.4143752 -0.2394029,0.4117527 -0.2394029,1.1723149 0,0.7684302 0.2449705,1.1775603 0.2449705,0.4065074 0.6569662,0.4065074 0.4119958,0 0.6551105,-0.4065074 Q 5.8551053,5.7946485 5.8551054,5.0262183 Z M 9.1065319,6.977454 h -0.47695 L 7.705375,5.4248579 H 7.1875963 V 6.977454 H 6.8201407 V 3.0723602 h 0.773884 q 0.250538,0 0.417563,0.047207 0.1670258,0.044584 0.3006461,0.162603 0.1503223,0.133754 0.2338352,0.3383191 0.085369,0.2019423 0.085369,0.5140351 0,0.4222432 -0.1503231,0.7081098 Q 8.3307923,5.1258778 8.0672632,5.2701224 Z M 8.2472794,4.1712415 q 0,-0.1678482 -0.042681,-0.296357 Q 8.1637695,3.7437531 8.0672662,3.6545837 7.9874649,3.5785279 7.8779704,3.5496788 7.7684766,3.5182073 7.6200093,3.5182073 h -0.432413 v 1.4739173 h 0.3711672 q 0.1744489,0 0.3043577,-0.041962 Q 7.9930299,4.9055786 8.0839659,4.78756 8.1674781,4.6774095 8.2064509,4.5357876 8.2472794,4.3915431 8.2472794,4.1712415 Z"
       id="text1"
       style="font-size:5.04644px;fill:#1a1a1a;stroke-width:0.376518"
       aria-label="XOR" />
  </g>
</svg>
