<?xml version="1.0" encoding="UTF-8" standalone="no"?>
<!-- Created with Inkscape (http://www.inkscape.org/) -->

<svg
   width="10mm"
   height="10mm"
   viewBox="0 0 10 10"
   version="1.1"
   id="svg1"
   inkscape:version="1.4.2 (ebf0e940, 2025-05-08)"
   sodipodi:docname="cos_sprite.svg"
   xmlns:inkscape="http://www.inkscape.org/namespaces/inkscape"
   xmlns:sodipodi="http://sodipodi.sourceforge.net/DTD/sodipodi-0.dtd"
   xmlns="http://www.w3.org/2000/svg"
   xmlns:svg="http://www.w3.org/2000/svg">
  <sodipodi:namedview
     id="namedview1"
     pagecolor="#ffffff"
     bordercolor="#000000"
     borderopacity="0.25"
     inkscape:showpageshadow="2"
     inkscape:pageopacity="0.0"
     inkscape:pagecheckerboard="0"
     inkscape:deskcolor="#d1d1d1"
     inkscape:document-units="mm"
     inkscape:zoom="16.388199"
     inkscape:cx="18.824521"
     inkscape:cy="18.427894"
     inkscape:window-width="1552"
     inkscape:window-height="981"
     inkscape:window-x="131"
     inkscape:window-y="38"
     inkscape:window-maximized="0"
     inkscape:current-layer="layer1"
     showgrid="true">
    <inkscape:grid
       id="grid1"
       units="mm"
       originx="0"
       originy="0"
       spacingx="0.99999997"
       spacingy="0.99999997"
       empcolor="#0099e5"
       empopacity="0.30196078"
       color="#0099e5"
       opacity="0.14901961"
       empspacing="5"
       enabled="true"
       visible="true" />
  </sodipodi:namedview>
  <defs
     id="defs1" />
  <g
     inkscape:label="Layer 1"
     inkscape:groupmode="layer"
     id="layer1">
    <path
       d="m 3.876668,5.6799933 q -0.1209095,0.052761 -0.2198354,0.098926 -0.096728,0.046165 -0.2550092,0.096728 -0.1340996,0.041769 -0.2923811,0.070347 -0.1560832,0.030777 -0.3451417,0.030777 -0.3561334,0 -0.6485146,-0.098926 Q 1.8256032,5.7767209 1.6101645,5.5634805 1.3991224,5.3546368 1.2804113,5.0336771 1.1617001,4.710519 1.1617001,4.2840382 q 0,-0.4044973 0.1143145,-0.7232587 Q 1.390329,3.2420181 1.6057678,3.0221826 1.8146114,2.8089423 2.109191,2.6968262 2.4059688,2.5847101 2.766499,2.5847101 q 0.2638025,0 0.5254067,0.063752 0.2638026,0.063752 0.5847623,0.2242321 V 3.3893079 H 3.8436927 Q 3.5732951,3.1628773 3.3072942,3.0595547 3.0412933,2.956232 2.7379204,2.956232 q -0.2484141,0 -0.4484644,0.081339 -0.1978519,0.079141 -0.3539351,0.2484141 -0.1516864,0.1648766 -0.2374223,0.4176874 -0.083537,0.2506124 -0.083537,0.5803656 0,0.3451416 0.092331,0.5935557 0.094529,0.2484141 0.241819,0.4044972 0.1538848,0.1626783 0.3583318,0.2418191 0.2066453,0.076942 0.4352742,0.076942 0.3143647,0 0.589159,-0.1077194 0.2747943,-0.1077194 0.514415,-0.3231581 h 0.030777 z m 3.0557128,-2.660009 q 0.2000503,0.2198354 0.3055713,0.5385969 0.1077194,0.3187614 0.1077194,0.7232586 0,0.4044973 -0.1099178,0.725457 Q 7.1280344,5.3260582 6.9323808,5.5392986 6.7301322,5.7613324 6.4531395,5.8734485 6.1783452,5.9855646 5.8244101,5.9855646 q -0.3451417,0 -0.6287294,-0.1143144 Q 4.9142913,5.7569357 4.7164394,5.5392986 4.5185875,5.3216615 4.4108681,5.0050985 4.3053471,4.6885354 4.3053471,4.2818398 q 0,-0.4001005 0.105521,-0.7166636 Q 4.5163891,3.2464148 4.7186377,3.0199843 4.9120929,2.8045455 5.197879,2.6902311 5.4858635,2.5759167 5.8244101,2.5759167 q 0.3517367,0 0.6309278,0.1165128 0.2813893,0.1143144 0.4770429,0.3275548 z m -0.03957,1.2618555 q 0,-0.6375228 -0.2857861,-0.9826645 -0.2857861,-0.34734 -0.7804159,-0.34734 -0.4990264,0 -0.7848125,0.34734 -0.2835878,0.3451417 -0.2835878,0.9826645 0,0.6441179 0.2901828,0.9870612 0.2901828,0.340745 0.7782175,0.340745 0.4880348,0 0.7760192,-0.340745 0.2901828,-0.3429433 0.2901828,-0.9870612 z m 3.5217646,0.7012751 q 0,0.1912569 -0.09013,0.378117 -0.08793,0.1868602 -0.248414,0.3165631 -0.1758684,0.1406947 -0.4110924,0.2198354 -0.2330256,0.079141 -0.5627787,0.079141 -0.3539351,0 -0.6375229,-0.065951 Q 8.1832446,5.8448699 7.8908635,5.715167 V 5.1699751 h 0.030777 q 0.2484141,0.2066453 0.5737706,0.3187614 0.3253565,0.1121161 0.6111426,0.1121161 0.4044972,0 0.6287294,-0.1516865 0.2264305,-0.1516865 0.2264305,-0.4044972 0,-0.2176371 -0.1077194,-0.3209598 Q 9.7484731,4.6203864 9.530836,4.5632292 9.3659594,4.5192621 9.1725042,4.4906835 8.9812474,4.4621049 8.7658086,4.4181378 8.3305344,4.3258069 8.1194924,4.1037731 7.9106487,3.8795409 7.9106487,3.5212091 q 0,-0.4110923 0.34734,-0.6726965 0.34734,-0.2638025 0.8815402,-0.2638025 0.3451417,0 0.6331261,0.065951 0.287984,0.065951 0.510018,0.1626783 v 0.5144149 h -0.03078 Q 10.065036,3.1694724 9.7594649,3.0661497 9.4560919,2.9606287 9.1373305,2.9606287 q -0.3495383,0 -0.5627787,0.1450914 -0.2110421,0.1450914 -0.2110421,0.3737203 0,0.204447 0.105521,0.3209598 0.1055211,0.1165128 0.371522,0.1780667 0.1406947,0.030777 0.4001005,0.074744 0.2594058,0.043967 0.4396709,0.090133 0.3649269,0.096728 0.5495889,0.2923811 0.184662,0.1956536 0.184662,0.5473903 z"
       id="text1"
       style="font-size:4.50223px;fill:#1a1a1a;stroke-width:0.375185"
       transform="scale(0.86224139,1.159768)"
       aria-label="COS" />
  </g>
</svg>
