<?xml version="1.0" encoding="UTF-8" standalone="no"?>
<!-- Created with Inkscape (http://www.inkscape.org/) -->

<svg
   width="10mm"
   height="10mm"
   viewBox="0 0 10 10"
   version="1.1"
   id="svg1"
   inkscape:version="1.4.2 (ebf0e940, 2025-05-08)"
   sodipodi:docname="inverse_sin_sprite.svg"
   xmlns:inkscape="http://www.inkscape.org/namespaces/inkscape"
   xmlns:sodipodi="http://sodipodi.sourceforge.net/DTD/sodipodi-0.dtd"
   xmlns="http://www.w3.org/2000/svg"
   xmlns:svg="http://www.w3.org/2000/svg">
  <sodipodi:namedview
     id="namedview1"
     pagecolor="#ffffff"
     bordercolor="#000000"
     borderopacity="0.25"
     inkscape:showpageshadow="2"
     inkscape:pageopacity="0.0"
     inkscape:pagecheckerboard="0"
     inkscape:deskcolor="#d1d1d1"
     inkscape:document-units="mm"
     inkscape:zoom="16.388199"
     inkscape:cx="18.824521"
     inkscape:cy="18.427894"
     inkscape:window-width="1552"
     inkscape:window-height="981"
     inkscape:window-x="131"
     inkscape:window-y="38"
     inkscape:window-maximized="0"
     inkscape:current-layer="layer1"
     showgrid="true">
    <inkscape:grid
       id="grid1"
       units="mm"
       originx="0"
       originy="0"
       spacingx="0.99999997"
       spacingy="0.99999997"
       empcolor="#0099e5"
       empopacity="0.30196078"
       color="#0099e5"
       opacity="0.14901961"
       empspacing="5"
       enabled="true"
       visible="true" />
  </sodipodi:namedview>
  <defs
     id="defs1" />
  <g
     inkscape:label="Layer 1"
     inkscape:groupmode="layer"
     id="layer1">
    <path
       d="M 2.4943182,6.5404458 H 1.0584039 V 6.1692571 h 0.476196 V 3.2754501 H 1.0584039 V 2.9042614 H 2.4943182 V 3.2754501 H 2.0181221 v 2.893807 H 2.4943182 Z M 5.9595603,5.5025826 q 0,0.2124567 -0.1001232,0.4200293 -0.097681,0.2075727 -0.2759496,0.3516525 -0.1953625,0.15629 -0.4566598,0.2442031 -0.2588553,0.087913 -0.62516,0.087913 -0.393167,0 -0.708189,-0.073261 -0.31258,-0.073261 -0.6373701,-0.2173408 V 5.7101552 h 0.034188 q 0.2759495,0.2295509 0.6373701,0.3540945 0.3614206,0.1245436 0.6788847,0.1245436 0.4493337,0 0.6984209,-0.1685001 0.2515292,-0.1685002 0.2515292,-0.4493338 0,-0.2417611 -0.1196595,-0.3565365 Q 5.2196249,5.0996474 4.9778638,5.0361546 4.7947115,4.987314 4.5798127,4.9555676 4.367356,4.9238212 4.128037,4.8749805 3.6445148,4.7724152 3.4100798,4.5257701 3.1780868,4.2766829 3.1780868,3.8786318 q 0,-0.4566598 0.385841,-0.7472615 0.3858409,-0.2930437 0.9792545,-0.2930437 0.3833988,0 0.7033049,0.073261 0.3199061,0.073261 0.5665513,0.1807103 V 3.6637331 H 5.77885 Q 5.5712774,3.4879068 5.231835,3.3731314 4.8948347,3.2559139 4.5407402,3.2559139 q -0.3882829,0 -0.62516,0.161174 -0.2344349,0.1611741 -0.2344349,0.4151453 0,0.2271089 0.1172174,0.3565366 0.1172175,0.1294276 0.4127033,0.1978045 0.15629,0.034188 0.4444497,0.083029 0.2881597,0.048841 0.4884062,0.1001233 0.4053772,0.1074493 0.6105078,0.3247901 0.2051306,0.2173408 0.2051306,0.6080658 z M 9.5102735,6.5404458 H 8.9119759 L 7.1879019,3.2876603 V 6.5404458 H 6.7361261 V 2.9042614 H 7.4858297 L 9.0584978,5.8737713 V 2.9042614 h 0.4517757 z"
       id="text1"
       style="font-size:5.00128px;fill:#1a1a1a;stroke-width:0.416773"
       transform="scale(0.94810907,1.054731)"
       aria-label="ISN" />
  </g>
</svg>
