<?xml version="1.0" encoding="UTF-8" standalone="no"?>
<!-- Created with Inkscape (http://www.inkscape.org/) -->

<svg
   width="10mm"
   height="10mm"
   viewBox="0 0 10 10"
   version="1.1"
   id="svg1"
   inkscape:version="1.4.2 (ebf0e940, 2025-05-08)"
   sodipodi:docname="inverse_cos_sprite.svg"
   xmlns:inkscape="http://www.inkscape.org/namespaces/inkscape"
   xmlns:sodipodi="http://sodipodi.sourceforge.net/DTD/sodipodi-0.dtd"
   xmlns="http://www.w3.org/2000/svg"
   xmlns:svg="http://www.w3.org/2000/svg">
  <sodipodi:namedview
     id="namedview1"
     pagecolor="#ffffff"
     bordercolor="#000000"
     borderopacity="0.25"
     inkscape:showpageshadow="2"
     inkscape:pageopacity="0.0"
     inkscape:pagecheckerboard="0"
     inkscape:deskcolor="#d1d1d1"
     inkscape:document-units="mm"
     inkscape:zoom="16.388199"
     inkscape:cx="18.824521"
     inkscape:cy="18.427894"
     inkscape:window-width="1552"
     inkscape:window-height="981"
     inkscape:window-x="131"
     inkscape:window-y="38"
     inkscape:window-maximized="0"
     inkscape:current-layer="layer1"
     showgrid="true">
    <inkscape:grid
       id="grid1"
       units="mm"
       originx="0"
       originy="0"
       spacingx="0.99999997"
       spacingy="0.99999997"
       empcolor="#0099e5"
       empopacity="0.30196078"
       color="#0099e5"
       opacity="0.14901961"
       empspacing="5"
       enabled="true"
       visible="true" />
  </sodipodi:namedview>
  <defs
     id="defs1" />
  <g
     inkscape:label="Layer 1"
     inkscape:groupmode="layer"
     id="layer1">
    <path
       d="M 2.4936146,6.5513339 H 1.0443841 V 6.1767029 H 1.5249963 V 3.2560599 H 1.0443841 V 2.8814288 H 2.4936146 V 3.2560599 H 2.0130024 v 2.920643 H 2.4936146 Z M 6.1585904,6.2851487 Q 6.0230331,6.344301 5.9121226,6.3960592 5.8036768,6.4478174 5.62622,6.504505 q -0.1503453,0.046829 -0.3278021,0.07887 -0.1749921,0.034505 -0.3869544,0.034505 -0.3992778,0 -0.7270799,-0.1109105 Q 3.8590461,6.3935945 3.6175077,6.1545208 3.3808986,5.9203764 3.247806,5.5605335 3.1147135,5.1982259 3.1147135,4.7200784 q 0,-0.4535007 0.1281632,-0.810879 Q 3.3710399,3.5518212 3.6125783,3.3053534 3.8467227,3.0662797 4.1769895,2.9405811 4.509721,2.8148826 4.9139282,2.8148826 q 0.2957613,0 0.5890579,0.071476 0.2957613,0.071476 0.6556043,0.2513971 v 0.5791993 h -0.03697 Q 5.8184649,3.4630928 5.5202389,3.3472529 5.2220129,3.2314131 4.8818873,3.2314131 q -0.2785085,0 -0.5027942,0.091193 -0.221821,0.088728 -0.3968131,0.2785085 -0.1700628,0.1848509 -0.2661852,0.4682888 -0.093658,0.2809732 -0.093658,0.6506749 0,0.3869544 0.1035164,0.665463 0.1059812,0.2785085 0.2711146,0.4535007 0.1725274,0.1823861 0.4017424,0.2711145 0.2316797,0.086264 0.4880062,0.086264 0.3524489,0 0.6605336,-0.1207692 Q 5.855435,5.9548819 6.1240849,5.7133435 h 0.034505 z M 9.5154812,5.5038459 q 0,0.214427 -0.1010518,0.4239246 -0.098587,0.2094976 -0.2785085,0.3549135 -0.1971743,0.1577394 -0.4608948,0.2464678 -0.2612558,0.088728 -0.6309574,0.088728 -0.3968132,0 -0.7147566,-0.07394 Q 7.0138334,6.4699995 6.6860313,6.3245836 V 5.7133435 h 0.034505 q 0.2785086,0.2316797 0.6432809,0.3573783 0.3647723,0.1256985 0.6851804,0.1256985 0.4535007,0 0.7048978,-0.1700627 0.2538618,-0.1700628 0.2538618,-0.4535007 0,-0.2440031 -0.1207692,-0.359843 Q 8.7686839,5.0971741 8.5246808,5.0330925 8.33983,4.9837989 8.1229383,4.9517581 7.9085114,4.9197173 7.666973,4.8704237 7.1789668,4.7669073 6.9423577,4.5179748 6.7082134,4.2665777 6.7082134,3.8648352 q 0,-0.4608947 0.389419,-0.7541913 0.3894191,-0.2957613 0.9883358,-0.2957613 0.3869544,0 0.7098271,0.07394 0.3228728,0.07394 0.5718053,0.1823861 V 3.6479436 H 9.3330951 Q 9.1235975,3.4704868 8.7810073,3.354647 8.4408818,3.2363424 8.0835035,3.2363424 q -0.3918838,0 -0.6309575,0.1626688 -0.236609,0.1626687 -0.236609,0.4189952 0,0.229215 0.1183045,0.3598429 0.1183045,0.1306279 0.4165305,0.1996389 0.1577394,0.034505 0.4485713,0.083799 0.290832,0.049294 0.4929356,0.1010518 0.4091365,0.1084458 0.6161694,0.3278022 0.2070329,0.2193563 0.2070329,0.6137047 z"
       id="text1"
       style="font-size:5.04766px;fill:#1a1a1a;stroke-width:0.420637"
       transform="scale(0.94537842,1.0577775)"
       aria-label="ICS" />
  </g>
</svg>
