<?xml version="1.0" encoding="UTF-8" standalone="no"?>
<!-- Created with Inkscape (http://www.inkscape.org/) -->

<svg
   width="10mm"
   height="10mm"
   viewBox="0 0 10 10"
   version="1.1"
   id="svg1"
   inkscape:version="1.4.2 (ebf0e940, 2025-05-08)"
   sodipodi:docname="osprite.svg"
   xmlns:inkscape="http://www.inkscape.org/namespaces/inkscape"
   xmlns:sodipodi="http://sodipodi.sourceforge.net/DTD/sodipodi-0.dtd"
   xmlns="http://www.w3.org/2000/svg"
   xmlns:svg="http://www.w3.org/2000/svg">
  <sodipodi:namedview
     id="namedview1"
     pagecolor="#ffffff"
     bordercolor="#000000"
     borderopacity="0.25"
     inkscape:showpageshadow="2"
     inkscape:pageopacity="0.0"
     inkscape:pagecheckerboard="0"
     inkscape:deskcolor="#d1d1d1"
     inkscape:document-units="mm"
     inkscape:zoom="10.796358"
     inkscape:cx="14.217758"
     inkscape:cy="19.543628"
     inkscape:window-width="1552"
     inkscape:window-height="981"
     inkscape:window-x="131"
     inkscape:window-y="38"
     inkscape:window-maximized="0"
     inkscape:current-layer="layer1"
     showgrid="true">
    <inkscape:grid
       id="grid1"
       units="mm"
       originx="0"
       originy="0"
       spacingx="0.99999997"
       spacingy="0.99999997"
       empcolor="#0099e5"
       empopacity="0.30196078"
       color="#0099e5"
       opacity="0.14901961"
       empspacing="5"
       enabled="true"
       visible="true" />
  </sodipodi:namedview>
  <defs
     id="defs1" />
  <g
     inkscape:label="Layer 1"
     inkscape:groupmode="layer"
     id="layer1">
    <path
       d="m 6.767495,2.9740503 q 0.3704722,0.4071123 0.5658861,0.9974251 0.199485,0.5903128 0.199485,1.3393995 0,0.7490866 -0.2035561,1.3434705 Q 7.1298249,7.2446583 6.767495,7.6395572 6.3929517,8.0507406 5.8799902,8.2583679 5.3710998,8.4659952 4.715649,8.4659952 q -0.6391663,0 -1.1643412,-0.2116984 Q 3.0302041,8.0425984 2.663803,7.6395572 2.297402,7.236516 2.097917,6.6502743 1.902503,6.0640326 1.902503,5.3108749 q 0,-0.7409444 0.195414,-1.3271861 Q 2.2933309,3.3933759 2.6678742,2.9740503 3.026133,2.5750802 3.555379,2.3633818 4.0886961,2.1516834 4.715649,2.1516834 q 0.6513797,0 1.1684123,0.2157696 0.5211037,0.2116983 0.8834337,0.6065973 z m -0.07328,2.3368246 q 0,-1.1806257 -0.529246,-1.819792 -0.529246,-0.6432374 -1.4452487,-0.6432374 -0.9241449,0 -1.4533909,0.6432374 -0.5251748,0.6391663 -0.5251748,1.819792 0,1.192839 0.5373882,1.8279342 0.5373882,0.631024 1.4411775,0.631024 0.9037893,0 1.4371064,-0.631024 0.5373883,-0.6350952 0.5373883,-1.8279342 z"
       id="text1"
       style="font-size:8.33766px;fill:#ff0000;stroke-width:0.694804"
       transform="scale(1.0598078,0.9435673)"
       aria-label="O" />
  </g>
</svg>
