<?xml version="1.0" encoding="UTF-8" standalone="no"?>
<!-- Created with Inkscape (http://www.inkscape.org/) -->

<svg
   width="10mm"
   height="10mm"
   viewBox="0 0 10 10"
   version="1.1"
   id="svg1"
   inkscape:version="1.4.2 (ebf0e940, 2025-05-08)"
   sodipodi:docname="n_csprite.svg"
   xmlns:inkscape="http://www.inkscape.org/namespaces/inkscape"
   xmlns:sodipodi="http://sodipodi.sourceforge.net/DTD/sodipodi-0.dtd"
   xmlns="http://www.w3.org/2000/svg"
   xmlns:svg="http://www.w3.org/2000/svg">
  <sodipodi:namedview
     id="namedview1"
     pagecolor="#ffffff"
     bordercolor="#000000"
     borderopacity="0.25"
     inkscape:showpageshadow="2"
     inkscape:pageopacity="0.0"
     inkscape:pagecheckerboard="0"
     inkscape:deskcolor="#d1d1d1"
     inkscape:document-units="mm"
     inkscape:zoom="12.894057"
     inkscape:cx="14.076253"
     inkscape:cy="18.380562"
     inkscape:window-width="1552"
     inkscape:window-height="981"
     inkscape:window-x="131"
     inkscape:window-y="38"
     inkscape:window-maximized="0"
     inkscape:current-layer="layer1"
     showgrid="true">
    <inkscape:grid
       id="grid1"
       units="mm"
       originx="0"
       originy="0"
       spacingx="0.99999997"
       spacingy="0.99999997"
       empcolor="#0099e5"
       empopacity="0.30196078"
       color="#0099e5"
       opacity="0.14901961"
       empspacing="5"
       enabled="true"
       visible="true" />
  </sodipodi:namedview>
  <defs
     id="defs1" />
  <g
     inkscape:label="Layer 1"
     inkscape:groupmode="layer"
     id="layer1">
    <path
       d="M 7.1568114,8.2749456 Q 6.9193658,8.3785582 6.7250922,8.4692192 6.5351357,8.5598803 6.2242979,8.6591757 5.9609491,8.7412024 5.6501113,8.7973259 q -0.3065207,0.060441 -0.6777992,0.060441 -0.6993852,0 -1.2735718,-0.1942736 Q 3.1288709,8.464902 2.7057861,8.0461344 2.2913356,7.6360011 2.0582072,7.005691 1.8250788,6.3710637 1.8250788,5.5335284 q 0,-0.7943634 0.224494,-1.4203563 Q 2.2740668,3.4871793 2.6971517,3.05546 3.107285,2.6366924 3.6857887,2.4165155 4.2686097,2.1963387 4.9766293,2.1963387 q 0.518063,0 1.0318089,0.1251986 0.5180631,0.1251986 1.1483732,0.4403536 V 3.7764311 H 7.0920535 Q 6.5610389,3.3317603 6.0386586,3.1288523 5.5162783,2.9259442 4.9205058,2.9259442 q -0.4878428,0 -0.8807073,0.1597362 -0.3885473,0.1554189 -0.6950679,0.4878427 -0.2978863,0.3237894 -0.4662568,0.8202665 -0.1640533,0.49216 -0.1640533,1.1397388 0,0.6777992 0.181322,1.165642 0.1856393,0.4878427 0.4748912,0.7943634 0.3022035,0.3194722 0.7037024,0.4748911 0.405816,0.1511018 0.854804,0.1511018 0.6173586,0 1.1570076,-0.2115425 0.539649,-0.2115424 1.010223,-0.6346272 h 0.060441 z"
       id="text1"
       style="font-size:8.84161px;fill:#ff0000;stroke-width:0.7368"
       transform="scale(1.1095764,0.90124487)"
       aria-label="C" />
  </g>
</svg>
