<?xml version="1.0" encoding="UTF-8" standalone="no"?>
<!-- Created with Inkscape (http://www.inkscape.org/) -->

<svg
   width="10mm"
   height="10mm"
   viewBox="0 0 10 10"
   version="1.1"
   id="svg1"
   inkscape:version="1.4.2 (ebf0e940, 2025-05-08)"
   sodipodi:docname="f_dssprite.svg"
   xmlns:inkscape="http://www.inkscape.org/namespaces/inkscape"
   xmlns:sodipodi="http://sodipodi.sourceforge.net/DTD/sodipodi-0.dtd"
   xmlns="http://www.w3.org/2000/svg"
   xmlns:svg="http://www.w3.org/2000/svg">
  <sodipodi:namedview
     id="namedview1"
     pagecolor="#ffffff"
     bordercolor="#000000"
     borderopacity="0.25"
     inkscape:showpageshadow="2"
     inkscape:pageopacity="0.0"
     inkscape:pagecheckerboard="0"
     inkscape:deskcolor="#d1d1d1"
     inkscape:document-units="mm"
     inkscape:zoom="12.565128"
     inkscape:cx="12.05718"
     inkscape:cy="19.737165"
     inkscape:window-width="1552"
     inkscape:window-height="981"
     inkscape:window-x="131"
     inkscape:window-y="38"
     inkscape:window-maximized="0"
     inkscape:current-layer="layer1"
     showgrid="true">
    <inkscape:grid
       id="grid1"
       units="mm"
       originx="0"
       originy="0"
       spacingx="0.99999997"
       spacingy="0.99999997"
       empcolor="#0099e5"
       empopacity="0.30196078"
       color="#0099e5"
       opacity="0.14901961"
       empspacing="5"
       enabled="true"
       visible="true" />
  </sodipodi:namedview>
  <defs
     id="defs1" />
  <g
     inkscape:label="Layer 1"
     inkscape:groupmode="layer"
     id="layer1">
    <path
       d="M 4.5378286,7.3289366 H 3.877866 V 6.9182152 Q 3.5935204,7.1639459 3.2846017,7.3008531 2.975683,7.4377602 2.6141078,7.4377602 q -0.702088,0 -1.1163198,-0.5406077 -0.4107214,-0.5406077 -0.4107214,-1.4989577 0,-0.4984824 0.1404175,-0.8881412 0.1439281,-0.3896588 0.3861484,-0.663473 0.2387099,-0.2667934 0.5546494,-0.407211 0.31945,-0.1404176 0.6599627,-0.1404176 0.3089186,0 0.5476285,0.066698 0.2387099,0.063188 0.5019929,0.2000951 V 1.8666927 H 4.5378286 Z M 3.877866,6.3635657 V 4.113374 Q 3.6110726,3.994019 3.4004462,3.9483833 3.1898198,3.9027476 2.9405786,3.9027476 q -0.5546494,0 -0.8635681,0.3861483 -0.3089187,0.3861484 -0.3089187,1.0952572 0,0.6985774 0.2387099,1.0636632 0.2387099,0.3615752 0.7652758,0.3615752 0.2808352,0 0.5686912,-0.1228654 Q 3.6286248,6.5601503 3.877866,6.3635657 Z M 9.6876436,5.8369998 q 0,0.3054082 -0.143928,0.6037956 Q 9.403298,6.7391827 9.1470359,6.9462987 8.8662007,7.1709668 8.4905837,7.2973426 8.1184771,7.4237184 7.5919112,7.4237184 q -0.5651808,0 -1.0180275,-0.1053131 Q 6.1245474,7.2130921 5.657659,7.0059761 v -0.870589 h 0.049146 q 0.3966797,0.3299814 0.9162248,0.5090138 0.519545,0.1790324 0.9759022,0.1790324 0.6459208,0 1.0039857,-0.2422203 Q 8.964493,6.3389926 8.964493,5.9352921 8.964493,5.5877586 8.7924815,5.4227679 8.6239804,5.2577773 8.2764469,5.1665058 8.0131639,5.096297 7.7042452,5.0506613 7.398837,5.0050256 7.0548139,4.9348168 6.3597469,4.7873784 6.0227447,4.432824 5.6892529,4.0747591 5.6892529,3.5025575 q 0,-0.6564522 0.5546495,-1.0741945 0.5546494,-0.4212528 1.4076862,-0.4212528 0.5511391,0 1.0110066,0.1053132 0.4598676,0.1053132 0.814422,0.2597726 V 3.1936388 H 9.4278711 Q 9.1294837,2.9408872 8.6415326,2.7758965 8.1570919,2.6073954 7.6480782,2.6073954 q -0.5581599,0 -0.8986725,0.231689 -0.3370022,0.231689 -0.3370022,0.5967747 0,0.3264709 0.1685011,0.5125242 0.1685011,0.1860533 0.5932643,0.2843456 0.2246681,0.049146 0.6389,0.119355 0.4142318,0.070209 0.7020879,0.143928 0.5827329,0.1544593 0.8776099,0.4668884 0.2948769,0.3124291 0.2948769,0.8740995 z"
       id="text1"
       style="font-size:7.18938px;stroke-width:0.599114"
       transform="scale(0.92883899,1.0766129)"
       aria-label="dS" />
  </g>
</svg>
