<?xml version="1.0" encoding="UTF-8" standalone="no"?>
<!-- Created with Inkscape (http://www.inkscape.org/) -->

<svg
   width="10mm"
   height="10mm"
   viewBox="0 0 10 10"
   version="1.1"
   id="svg1"
   inkscape:version="1.4.2 (ebf0e940, 2025-05-08)"
   sodipodi:docname="g_d2ssprite.svg"
   xmlns:inkscape="http://www.inkscape.org/namespaces/inkscape"
   xmlns:sodipodi="http://sodipodi.sourceforge.net/DTD/sodipodi-0.dtd"
   xmlns="http://www.w3.org/2000/svg"
   xmlns:svg="http://www.w3.org/2000/svg">
  <sodipodi:namedview
     id="namedview1"
     pagecolor="#ffffff"
     bordercolor="#000000"
     borderopacity="0.25"
     inkscape:showpageshadow="2"
     inkscape:pageopacity="0.0"
     inkscape:pagecheckerboard="0"
     inkscape:deskcolor="#d1d1d1"
     inkscape:document-units="mm"
     inkscape:zoom="14.893247"
     inkscape:cx="18.162594"
     inkscape:cy="15.980397"
     inkscape:window-width="1552"
     inkscape:window-height="981"
     inkscape:window-x="131"
     inkscape:window-y="38"
     inkscape:window-maximized="0"
     inkscape:current-layer="layer1"
     showgrid="true">
    <inkscape:grid
       id="grid1"
       units="mm"
       originx="0"
       originy="0"
       spacingx="0.99999997"
       spacingy="0.99999997"
       empcolor="#0099e5"
       empopacity="0.30196078"
       color="#0099e5"
       opacity="0.14901961"
       empspacing="5"
       enabled="true"
       visible="true" />
  </sodipodi:namedview>
  <defs
     id="defs1" />
  <g
     inkscape:label="Layer 1"
     inkscape:groupmode="layer"
     id="layer1">
    <path
       d="M 4.1414892,6.0736098 H 3.5934976 V 5.7325725 Q 3.3573948,5.9366119 3.1008882,6.050291 2.8443815,6.1639701 2.544152,6.1639701 q -0.5829697,0 -0.9269219,-0.4488867 Q 1.2761928,5.2661967 1.2761928,4.470443 q 0,-0.4139085 0.116594,-0.7374567 Q 1.5122956,3.4094381 1.7134202,3.1820799 1.9116299,2.9605514 2.1739663,2.8439574 2.4392175,2.7273635 2.7219578,2.7273635 q 0.2565067,0 0.4547164,0.055382 0.1982097,0.052467 0.4168234,0.1661464 V 1.5381052 H 4.1414892 Z M 3.5934976,5.2720264 V 3.4036084 Q 3.3719691,3.3045035 3.1970782,3.2666105 3.0221872,3.2287175 2.815233,3.2287175 q -0.4605461,0 -0.7170528,0.3206333 -0.2565067,0.3206334 -0.2565067,0.9094328 0,0.5800549 0.1982097,0.8831992 0.1982097,0.3002294 0.635437,0.3002294 0.2331879,0 0.4722055,-0.1020197 Q 3.3865433,5.435258 3.5934976,5.2720264 Z M 7.4993949,4.4238054 H 5.2841099 V 3.969089 Q 5.5755947,3.7883684 5.8175272,3.6280517 6.0623745,3.4677351 6.2110318,3.3482263 6.592877,3.0479968 6.7007264,2.8993396 6.8085758,2.7477674 6.8085758,2.5029201 q 0,-0.2011245 -0.1574019,-0.3118888 -0.154487,-0.1107642 -0.4168233,-0.1107642 -0.2594216,0 -0.5100986,0.09036 -0.250677,0.087445 -0.3905897,0.1778057 H 5.2957693 V 1.8237604 q 0.2069542,-0.075786 0.4605461,-0.1253385 0.2565067,-0.052467 0.5100985,-0.052467 0.5246728,0 0.7957537,0.230273 0.2739958,0.2273582 0.2739958,0.5917143 0,0.2885701 -0.1428276,0.5100986 Q 7.0534231,3.1966541 6.7182155,3.4589905 6.5578988,3.584329 6.3305406,3.7329863 6.1060972,3.8816436 5.9137172,4.0011524 h 1.5856777 z m 4.1536591,0.4109937 q 0,0.2535919 -0.119508,0.501354 -0.116594,0.2477621 -0.329378,0.4197382 -0.233188,0.1865503 -0.545077,0.2914849 -0.308974,0.1049345 -0.7462012,0.1049345 -0.4692907,0 -0.8453061,-0.087445 Q 8.694483,5.9774198 8.3068081,5.8054437 V 5.0825613 h 0.040808 q 0.3293779,0.2739957 0.7607755,0.422653 0.4313976,0.1486573 0.810328,0.1486573 0.5363325,0 0.8336465,-0.2011246 0.30023,-0.2011245 0.30023,-0.5363321 0,-0.28857 -0.142828,-0.4255679 Q 10.769855,4.3538491 10.481285,4.278063 10.262672,4.219766 10.006165,4.181873 9.7525731,4.14398 9.4669179,4.085683 8.8897779,3.9632593 8.6099524,3.6688596 8.3330418,3.371545 8.3330418,2.8964247 q 0,-0.5450767 0.4605461,-0.8919437 0.4605461,-0.3497819 1.1688543,-0.3497819 0.4576308,0 0.8394768,0.087446 0.381845,0.087446 0.676245,0.2156988 V 2.639918 h -0.04081 Q 11.189594,2.4300489 10.78443,2.293051 10.38218,2.1531383 9.9595274,2.1531383 q -0.463461,0 -0.7462013,0.19238 -0.2798255,0.19238 -0.2798255,0.4955243 0,0.2710809 0.1399127,0.4255679 0.1399128,0.154487 0.4926095,0.2361027 0.1865503,0.040808 0.5305022,0.099105 0.343952,0.058297 0.58297,0.1195088 0.483865,0.1282533 0.728712,0.3876749 0.244847,0.2594215 0.244847,0.7257973 z"
       id="text1"
       style="font-size:5.96961px;stroke-width:0.497467"
       transform="scale(0.77154191,1.2961059)"
       aria-label="d²S" />
  </g>
</svg>
