<?xml version="1.0" encoding="UTF-8" standalone="no"?>
<!-- Created with Inkscape (http://www.inkscape.org/) -->

<svg
   width="10mm"
   height="10mm"
   viewBox="0 0 10 10"
   version="1.1"
   id="svg1"
   inkscape:version="1.4.2 (ebf0e940, 2025-05-08)"
   sodipodi:docname="l_dbsprite.svg"
   xmlns:inkscape="http://www.inkscape.org/namespaces/inkscape"
   xmlns:sodipodi="http://sodipodi.sourceforge.net/DTD/sodipodi-0.dtd"
   xmlns="http://www.w3.org/2000/svg"
   xmlns:svg="http://www.w3.org/2000/svg">
  <sodipodi:namedview
     id="namedview1"
     pagecolor="#ffffff"
     bordercolor="#000000"
     borderopacity="0.25"
     inkscape:showpageshadow="2"
     inkscape:pageopacity="0.0"
     inkscape:pagecheckerboard="0"
     inkscape:deskcolor="#d1d1d1"
     inkscape:document-units="mm"
     inkscape:zoom="10.985115"
     inkscape:cx="13.882422"
     inkscape:cy="17.56923"
     inkscape:window-width="1552"
     inkscape:window-height="981"
     inkscape:window-x="131"
     inkscape:window-y="38"
     inkscape:window-maximized="0"
     inkscape:current-layer="layer1"
     showgrid="true">
    <inkscape:grid
       id="grid1"
       units="mm"
       originx="0"
       originy="0"
       spacingx="0.99999997"
       spacingy="0.99999997"
       empcolor="#0099e5"
       empopacity="0.30196078"
       color="#0099e5"
       opacity="0.14901961"
       empspacing="5"
       enabled="true"
       visible="true" />
  </sodipodi:namedview>
  <defs
     id="defs1" />
  <g
     inkscape:label="Layer 1"
     inkscape:groupmode="layer"
     id="layer1">
    <path
       d="M 4.523536,7.2715712 H 3.8728118 V 6.8665992 Q 3.5924466,7.1088901 3.2878523,7.2438808 2.983258,7.3788714 2.6267443,7.3788714 q -0.6922598,0 -1.1006931,-0.53304 -0.4049719,-0.53304 -0.4049719,-1.4779746 0,-0.4915044 0.1384519,-0.8757085 Q 1.4014445,4.1079441 1.6402741,3.8379628 1.8756424,3.5749041 2.1871593,3.4364521 2.5021375,3.2980002 2.8378835,3.2980002 q 0.3045943,0 0.5399626,0.065765 0.2353683,0.062303 0.4949657,0.197294 V 1.8857903 H 4.523536 Z M 3.8728118,6.319714 V 4.1010215 Q 3.6097531,3.9833373 3.4020752,3.9383404 3.1943972,3.8933436 2.948645,3.8933436 q -0.5468852,0 -0.8514795,0.3807428 -0.3045943,0.3807429 -0.3045943,1.0799252 0,0.6887985 0.2353684,1.0487736 0.2353683,0.3565137 0.7545631,0.3565137 0.2769039,0 0.5607304,-0.1211454 Q 3.6270596,6.5135467 3.8728118,6.319714 Z M 9.7431747,5.6862963 q 0,0.3842042 -0.1453746,0.6784146 Q 9.4524256,6.6589213 9.2066734,6.8492927 8.9159243,7.0777384 8.5663331,7.1746548 8.2202032,7.2715712 7.6837019,7.2715712 H 5.8561362 V 2.1176973 h 1.5264327 q 0.5641917,0 0.8445569,0.041536 0.2803652,0.041536 0.5365013,0.1730649 0.2838265,0.1488359 0.4118946,0.3842042 0.128068,0.231907 0.128068,0.5572691 0,0.3668977 -0.1869101,0.6264951 -0.1869101,0.2561361 -0.498427,0.4118945 v 0.02769 q 0.5226561,0.1073003 0.8237891,0.4603527 0.301133,0.3495912 0.301133,0.8860925 z M 8.5905622,3.3637649 q 0,-0.1869102 -0.062303,-0.3149782 Q 8.4659554,2.9207186 8.3275035,2.8411087 8.1648224,2.7476537 7.9329154,2.7268859 7.7010084,2.7026568 7.3583398,2.7026568 H 6.5414733 v 1.4883585 h 0.8860925 q 0.3219008,0 0.5122722,-0.031152 0.1903715,-0.034613 0.3530525,-0.138452 0.162681,-0.1038389 0.2284457,-0.26652 0.069226,-0.1661423 0.069226,-0.3911267 z m 0.4395849,2.3502218 q 0,-0.3115169 -0.093455,-0.4949657 Q 8.843237,5.0355722 8.5974848,4.9075041 8.4313424,4.8209716 8.1925128,4.7967425 7.9571445,4.7690522 7.6179372,4.7690522 H 6.5414733 v 1.9175595 h 0.9068603 q 0.4499688,0 0.7372566,-0.044997 0.2872878,-0.048458 0.4707367,-0.173065 0.1938327,-0.1349906 0.2838265,-0.3080555 0.089994,-0.173065 0.089994,-0.4465076 z"
       id="text1"
       style="font-size:7.08874px;stroke-width:0.590728"
       transform="scale(0.92278398,1.0836772)"
       aria-label="dB" />
  </g>
</svg>
