<?xml version="1.0" encoding="UTF-8" standalone="no"?>
<!-- Created with Inkscape (http://www.inkscape.org/) -->

<svg
   width="10mm"
   height="10mm"
   viewBox="0 0 10 10"
   version="1.1"
   id="svg1"
   inkscape:version="1.4.2 (ebf0e940, 2025-05-08)"
   sodipodi:docname="m_d2bsprite.svg"
   xmlns:inkscape="http://www.inkscape.org/namespaces/inkscape"
   xmlns:sodipodi="http://sodipodi.sourceforge.net/DTD/sodipodi-0.dtd"
   xmlns="http://www.w3.org/2000/svg"
   xmlns:svg="http://www.w3.org/2000/svg">
  <sodipodi:namedview
     id="namedview1"
     pagecolor="#ffffff"
     bordercolor="#000000"
     borderopacity="0.25"
     inkscape:showpageshadow="2"
     inkscape:pageopacity="0.0"
     inkscape:pagecheckerboard="0"
     inkscape:deskcolor="#d1d1d1"
     inkscape:document-units="mm"
     inkscape:zoom="12.756737"
     inkscape:cx="11.954467"
     inkscape:cy="16.22672"
     inkscape:window-width="1552"
     inkscape:window-height="981"
     inkscape:window-x="131"
     inkscape:window-y="38"
     inkscape:window-maximized="0"
     inkscape:current-layer="layer1"
     showgrid="true">
    <inkscape:grid
       id="grid1"
       units="mm"
       originx="0"
       originy="0"
       spacingx="0.99999997"
       spacingy="0.99999997"
       empcolor="#0099e5"
       empopacity="0.30196078"
       color="#0099e5"
       opacity="0.14901961"
       empspacing="5"
       enabled="true"
       visible="true" />
  </sodipodi:namedview>
  <defs
     id="defs1" />
  <g
     inkscape:label="Layer 1"
     inkscape:groupmode="layer"
     id="layer1">
    <path
       d="M 4.1668115,6.0392785 H 3.6243893 V 5.7017072 Q 3.3906861,5.903673 3.1367863,6.0161967 2.8828866,6.1287205 2.5857084,6.1287205 2.0086635,6.1287205 1.668207,5.6843959 1.3306358,5.2400713 1.3306358,4.452405 q 0,-0.4097019 0.115409,-0.7299618 Q 1.564339,3.4021833 1.7634195,3.1771358 1.9596147,2.9578587 2.2192849,2.8424497 q 0.2625555,-0.115409 0.5424222,-0.115409 0.2538998,0 0.4500951,0.054819 0.1961952,0.051934 0.4125871,0.1644578 V 1.5498691 H 4.1668115 Z M 3.6243893,5.2458418 V 3.3964128 Q 3.4051122,3.2983152 3.2319987,3.2608073 3.0588853,3.2232994 2.8540343,3.2232994 q -0.4558654,0 -0.7097652,0.3173747 -0.2538998,0.3173747 -0.2538998,0.90019 0,0.5741597 0.1961953,0.8742231 0.1961953,0.2971781 0.6289789,0.2971781 0.230818,0 0.4674064,-0.1009829 Q 3.4195383,5.4074143 3.6243893,5.2458418 Z M 7.4905901,4.4062414 H 5.2978195 V 3.9561464 Q 5.5863419,3.7772625 5.8258155,3.6185751 6.0681744,3.4598878 6.2153209,3.3415936 6.5932853,3.0444154 6.7000386,2.897269 6.8067919,2.7472373 6.8067919,2.5048785 q 0,-0.1990805 -0.1558021,-0.3087191 -0.1529169,-0.1096385 -0.4125872,-0.1096385 -0.2567849,0 -0.5049142,0.089442 Q 5.485359,2.2625196 5.3468683,2.3519616 H 5.3093604 V 1.8326211 q 0.2048509,-0.075016 0.4558654,-0.1240646 0.2538998,-0.051934 0.5049143,-0.051934 0.5193404,0 0.7876663,0.2279328 0.2712111,0.2250475 0.2712111,0.5857006 0,0.2856372 -0.141376,0.5049143 Q 7.0491507,3.1915619 6.7173499,3.4512321 6.5586626,3.5752968 6.3336151,3.7224432 6.1114528,3.8695897 5.921028,3.9878839 h 1.5695621 z m 4.2297389,0.3116043 q 0,0.3202599 -0.121179,0.565504 -0.12118,0.2452441 -0.32603,0.4039314 -0.242359,0.1904248 -0.533767,0.2712111 -0.288522,0.080786 -0.735732,0.080786 H 8.4802222 V 1.7431792 h 1.272384 q 0.4702918,0 0.7039948,0.034623 0.233703,0.034623 0.44721,0.1442612 0.236588,0.1240647 0.343341,0.3202599 0.106754,0.1933101 0.106754,0.4645212 0,0.3058338 -0.155802,0.5222256 -0.155802,0.2135066 -0.415473,0.3433417 v 0.023082 q 0.435669,0.089442 0.686684,0.3837349 0.251014,0.2914077 0.251014,0.7386175 z M 10.75955,2.78186 q 0,-0.1558021 -0.05193,-0.2625554 Q 10.655681,2.4125513 10.540272,2.3461911 10.404667,2.26829 10.211357,2.2509787 10.018047,2.2307821 9.7324096,2.2307821 h -0.680913 v 1.2406466 h 0.7386175 q 0.2683259,0 0.4270129,-0.025967 0.158688,-0.028852 0.294293,-0.115409 0.135606,-0.086557 0.190425,-0.2221623 0.05771,-0.1384908 0.05771,-0.3260304 z m 0.366423,1.9590675 q 0,-0.2596702 -0.0779,-0.4125871 Q 10.970171,4.1754235 10.76532,4.0686702 10.626829,3.9965395 10.427749,3.976343 10.231553,3.9532612 9.9488015,3.9532612 H 9.0514966 v 1.5984144 h 0.7559289 q 0.3750795,0 0.6145525,-0.037508 0.239474,-0.040393 0.392391,-0.1442612 0.161572,-0.1125237 0.236588,-0.256785 0.07502,-0.1442612 0.07502,-0.3721939 z"
       id="text1"
       style="font-size:5.90894px;stroke-width:0.492411"
       transform="scale(0.76489701,1.3073655)"
       aria-label="d²B" />
  </g>
</svg>
